<?xml version="1.0" encoding="UTF-8" standalone="no"?>
<svg
   width="512"
   height="512"
   viewBox="0 0 512 512"
   version="1.1"
   id="svg3"
   xml:space="preserve"
   xmlns="http://www.w3.org/2000/svg"
   xmlns:svg="http://www.w3.org/2000/svg"><defs
     id="defs3" /><path
     id="path3-1"
     style="display:inline;fill:#ff0000;fill-opacity:1;stroke-width:0.613534"
     d="m 258.07633,0.01081833 c -4.56894,-0.04229 -9.14447,0.03955 -13.72072,0.242985 C 144.37082,4.6983203 56.175527,67.080374 18.683005,159.87598 c -52.890391,130.9062 10.35468,279.90273 141.261335,332.79196 89.36033,36.10451 187.12802,18.05718 238.71759,-24.6054 51.58957,-42.66256 58.8245,-104.51215 26.19651,-149.4265 -33.53586,-46.15887 -96.72798,-57.46193 -141.88712,-25.74712 -0.0445,0.0324 -0.0825,0.0704 -0.12685,0.10269 C 222.68759,336.69603 138.49144,323.35936 94.78561,263.20349 51.080698,203.04734 68.057725,123.3706 119.82707,77.92407 171.12448,32.89182 219.42269,21.232187 265.3291,18.6075 336.28976,14.549926 404.78667,42.179615 452.9885,92.982894 426.76292,61.118037 392.43082,35.161363 351.47462,18.614153 321.74411,6.6027563 290.0586,0.30576433 258.07597,0.01031333 Z M 198.32703,122.81144 c -11.74313,0.67218 -23.04553,4.70579 -32.56087,11.62033 -27.41178,19.91651 -33.48905,58.2831 -13.57425,85.69613 19.9167,27.41391 58.28585,33.49133 85.69947,13.57425 27.4139,-19.91671 33.49132,-58.28585 13.57424,-85.69947 -12.27251,-16.89193 -32.29318,-26.38306 -53.13859,-25.19124 z m 142.19003,186.85388 c 23.16188,-1.32443 45.40743,9.22144 59.04362,27.99063 22.12867,30.45909 15.37624,73.08976 -15.08213,95.21942 -30.45881,22.13162 -73.09185,15.38056 -95.22274,-15.0788 -22.13092,-30.45967 -15.37833,-73.0929 15.08212,-95.22274 10.57306,-7.68184 23.13138,-12.16259 36.17913,-12.90851 z" /></svg>
